<?xml version="1.0" standalone="no"?>
<!DOCTYPE svg PUBLIC "-//W3C//DTD SVG 20010904//EN"
 "http://www.w3.org/TR/2001/REC-SVG-20010904/DTD/svg10.dtd">
<svg version="1.0" xmlns="http://www.w3.org/2000/svg"
 width="300.000000pt" height="210.000000pt" viewBox="0 0 300.000000 210.000000"
 preserveAspectRatio="xMidYMid meet">
<metadata>
Created by potrace 1.10, written by Peter Selinger 2001-2011
</metadata>
<g transform="translate(0.000000,210.000000) scale(0.100000,-0.100000)"
fill="#000000" stroke="none">
<path d="M1544 1602 c-16 -10 -47 -73 -209 -427 -78 -171 -166 -360 -195 -422
-29 -62 -50 -119 -47 -127 4 -9 23 -24 43 -34 l37 -17 52 60 c170 193 775 921
775 931 0 7 -7 20 -16 28 -13 14 -47 16 -222 16 -114 0 -212 -4 -218 -8z m401
-42 c5 -9 -40 -76 -71 -105 -6 -5 -30 -35 -55 -65 -24 -30 -46 -57 -49 -60 -3
-3 -34 -40 -70 -82 -35 -43 -68 -78 -73 -78 -4 0 -6 -4 -3 -9 4 -5 2 -11 -3
-13 -5 -1 -39 -41 -76 -87 -62 -79 -81 -102 -127 -152 -10 -10 -16 -19 -13
-19 3 0 -4 -11 -17 -24 -32 -32 -64 -70 -74 -88 -11 -19 -102 -124 -129 -150
-22 -21 -43 -20 -58 3 -7 11 -2 32 17 75 48 106 101 209 109 212 4 2 7 8 7 14
0 11 12 39 81 183 26 55 59 128 74 163 15 34 31 62 35 62 4 0 7 6 7 13 0 14
80 185 95 205 13 15 383 18 393 2z"/>
<path d="M890 1381 c-16 -30 -14 -686 3 -699 22 -18 71 -23 89 -10 11 8 32 73
57 173 22 88 61 242 87 342 38 150 44 185 34 198 -10 12 -38 15 -136 15 -112
0 -124 -2 -134 -19z m215 -11 c26 -10 27 -13 20 -58 -3 -26 -10 -60 -15 -77
-5 -16 -35 -135 -66 -264 -30 -128 -60 -244 -66 -257 -12 -26 -51 -33 -65 -11
-8 13 -5 620 3 649 4 14 20 18 82 21 42 1 78 4 79 5 1 1 14 -3 28 -8z"/>
<path d="M2140 1258 c-47 -39 -213 -180 -370 -312 -157 -133 -338 -285 -403
-339 -64 -55 -117 -104 -117 -110 0 -26 40 -77 60 -77 11 0 60 20 108 44 73
37 334 159 592 279 214 99 255 119 262 130 4 7 8 105 8 219 0 175 -2 209 -16
222 -8 9 -21 16 -27 16 -7 0 -50 -33 -97 -72z m100 -177 c1 -141 -1 -187 -12
-197 -7 -7 -76 -42 -153 -77 -125 -58 -403 -191 -557 -267 -32 -16 -58 -27
-58 -25 0 3 -22 -8 -49 -24 -69 -41 -107 -48 -121 -21 -9 18 -6 26 27 58 21
21 55 50 76 66 21 15 45 35 55 45 9 9 37 32 62 51 25 19 47 37 50 40 3 3 28
24 55 45 28 22 52 43 55 46 3 4 37 32 75 64 76 62 108 88 230 191 44 37 82 70
85 73 8 9 101 84 134 108 17 11 34 18 38 14 4 -3 8 -89 8 -190z"/>
<path d="M1692 410 c-189 -48 -346 -90 -349 -94 -10 -10 -4 -77 8 -92 9 -11
74 -14 349 -14 186 0 345 3 354 6 13 5 16 27 16 135 0 112 -2 129 -17 137 -12
6 -127 -19 -361 -78z m346 -54 c1 -55 -1 -103 -6 -108 -4 -4 -153 -10 -329
-13 -314 -6 -322 -6 -332 14 -23 43 -12 54 74 73 6 1 35 8 65 16 109 27 126
31 190 45 69 15 215 52 265 66 67 20 70 16 73 -93z"/>
</g>
</svg>
